<?xml version="1.0" encoding="UTF-8"?>
<svg width="305px" height="61px" viewBox="0 0 305 61" version="1.1" xmlns="http://www.w3.org/2000/svg" xmlns:xlink="http://www.w3.org/1999/xlink">
    <!-- Generator: Sketch 49 (51002) - http://www.bohemiancoding.com/sketch -->
    <title>logo-MedicaidGov</title>
    <desc>Created with Sketch.</desc>
    <defs></defs>
    <g id="Page-1" stroke="none" stroke-width="1" fill="none" fill-rule="evenodd">
        <g id="logo-MedicaidGov" fill-rule="nonzero">
            <polygon id="Shape" fill="#888888" points="0.06 56.22 0.06 42.62 1.86 42.62 1.86 49.37 8.61 42.62 11.05 42.62 5.35 48.16 11.35 56.25 8.93 56.25 4.09 49.37 1.86 51.54 1.86 56.25"></polygon>
            <path d="M19.34,53.05 L21.07,53.26 C20.848776,54.1923517 20.3161074,55.0213393 19.56,55.61 C18.7377265,56.1910619 17.7459425,56.4829699 16.74,56.44 C15.46372,56.5203335 14.2133373,56.0550748 13.3,55.16 C12.4046998,54.130862 11.9487202,52.7916465 12.03,51.43 C11.9416116,50.0262413 12.4003665,48.6428084 13.31,47.57 C14.161214,46.6368006 15.3774757,46.1218069 16.64,46.16 C17.860024,46.1172396 19.0385356,46.6061577 19.87,47.5 C20.7754472,48.5447088 21.2413331,49.8993615 21.17,51.28 C21.17,51.38 21.17,51.53 21.17,51.73 L13.76,51.73 C13.7698943,52.6232637 14.0958295,53.4841577 14.68,54.16 C15.2127304,54.727138 15.9621523,55.0400034 16.74,55.02 C17.3018374,55.036697 17.8535536,54.8680195 18.31,54.54 C18.7892506,54.1525091 19.1468219,53.6352457 19.34,53.05 Z M13.86,50.35 L19.36,50.35 C19.3411314,49.6808771 19.1216421,49.0328609 18.73,48.49 C18.2368802,47.8481778 17.4692856,47.4773591 16.66,47.49 C15.938668,47.4732189 15.2416807,47.7512915 14.73,48.26 C14.1781839,48.8163145 13.8659268,49.5664492 13.86,50.35 Z" id="Shape" fill="#888888"></path>
            <path d="M29.91,53.05 L31.64,53.26 C31.4293175,54.18681 30.9112213,55.015059 30.17,55.61 C29.3477265,56.1910619 28.3559425,56.4829699 27.35,56.44 C26.0601385,56.5319682 24.7928517,56.0658397 23.87,55.16 C22.9746998,54.130862 22.5187202,52.7916465 22.6,51.43 C22.5116116,50.0262413 22.9703665,48.6428084 23.88,47.57 C24.7219859,46.6475003 25.921303,46.1335072 27.17,46.16 C28.390024,46.1172396 29.5685356,46.6061577 30.4,47.5 C31.289897,48.5548253 31.7377549,49.9127302 31.65,51.29 C31.65,51.39 31.65,51.54 31.65,51.74 L24.33,51.74 C24.342245,52.6298125 24.6680328,53.4867762 25.25,54.16 C25.7827304,54.727138 26.5321523,55.0400034 27.31,55.02 C27.8718374,55.036697 28.4235536,54.8680195 28.88,54.54 C29.3592506,54.1525091 29.7168219,53.6352457 29.91,53.05 Z M24.43,50.35 L29.93,50.35 C29.9111314,49.6808771 29.6916421,49.0328609 29.3,48.49 C28.8068802,47.8481778 28.0392856,47.4773591 27.23,47.49 C26.508668,47.4732189 25.8116807,47.7512915 25.3,48.26 C24.7445171,48.8146983 24.4285879,49.5650301 24.42,50.35 L24.43,50.35 Z" id="Shape" fill="#888888"></path>
            <path d="M33.73,60 L33.73,46.37 L35.25,46.37 L35.25,47.65 C35.5667139,47.1865523 35.9836864,46.80034 36.47,46.52 C36.976943,46.2618878 37.5415575,46.137948 38.11,46.16 C38.9020993,46.1451385 39.6799405,46.3718635 40.34,46.81 C40.9982757,47.2607495 41.5067227,47.8980495 41.8,48.64 C42.1332256,49.4623693 42.2997818,50.3427374 42.29,51.23 C42.304655,52.1646773 42.1205927,53.0918057 41.75,53.95 C41.4226379,54.7123206 40.8717108,55.3573934 40.17,55.8 C39.5192823,56.2169644 38.7628466,56.4390373 37.99,56.44 C37.4686961,56.4496795 36.9531867,56.329394 36.49,56.09 C36.0650758,55.8604416 35.6935909,55.5434866 35.4,55.16 L35.4,59.96 L33.73,60 Z M35.24,51.35 C35.1601415,52.347893 35.4326052,53.3422085 36.01,54.16 C36.4567204,54.7336558 37.1429238,55.069379 37.87,55.07 C38.6128969,55.0772799 39.3176295,54.7415173 39.78,54.16 C40.3746808,53.3080554 40.6540188,52.2755654 40.57,51.24 C40.6463181,50.2393206 40.3742822,49.2430333 39.8,48.42 C39.3646019,47.8342006 38.6798582,47.4862768 37.95,47.48 C37.1981108,47.4987703 36.4985044,47.8689324 36.06,48.48 C35.4651544,49.3140947 35.1755963,50.3275483 35.24,51.35 Z" id="Shape" fill="#888888"></path>
            <path d="M44.31,44.54 L44.31,42.62 L45.98,42.62 L45.98,44.54 L44.31,44.54 Z M44.31,56.22 L44.31,46.37 L45.98,46.37 L45.98,56.22 L44.31,56.22 Z" id="Shape" fill="#888888"></path>
            <path d="M48.52,56.22 L48.52,46.37 L50.02,46.37 L50.02,47.77 C50.7073579,46.7095514 51.907895,46.0959436 53.17,46.16 C53.732837,46.1529596 54.2910952,46.261888 54.81,46.48 C55.2536186,46.6514202 55.6412234,46.9421238 55.93,47.32 C56.1871209,47.6893013 56.364239,48.1082538 56.45,48.55 C56.518416,49.0837562 56.5418318,49.6223199 56.52,50.16 L56.52,56.22 L54.85,56.22 L54.85,50.22 C54.8751547,49.7028673 54.8108782,49.1852723 54.66,48.69 C54.528447,48.349603 54.285153,48.063997 53.97,47.88 C53.6185357,47.6746047 53.2169753,47.5707529 52.81,47.58 C52.1332713,47.5689451 51.4768996,47.8115173 50.97,48.26 C50.3519588,48.9689964 50.0615018,49.9057201 50.17,50.84 L50.17,56.22 L48.52,56.22 Z" id="Shape" fill="#888888"></path>
            <path d="M58.78,57.04 L60.4,57.28 C60.4303511,57.7067341 60.6368468,58.1016119 60.97,58.37 C61.47184,58.7035169 62.0684561,58.8649542 62.67,58.83 C63.3002072,58.8688561 63.9266081,58.7078816 64.46,58.37 C64.8867515,58.0495055 65.18755,57.5894608 65.31,57.07 C65.4215247,56.362481 65.4617263,55.6455517 65.43,54.93 C64.7674254,55.7577366 63.7601725,56.2336913 62.7,56.22 C61.4715506,56.2808789 60.292418,55.730617 59.55,54.75 C58.7963862,53.7340093 58.4055209,52.4945086 58.44,51.23 C58.4308245,50.3376142 58.6043857,49.4527924 58.95,48.63 C59.2511811,47.884192 59.7660838,47.2440428 60.43,46.79 C61.1091079,46.3549468 61.9038668,46.1353424 62.71,46.16 C63.8404006,46.1416955 64.9111784,46.6659305 65.59,47.57 L65.59,46.37 L67.17,46.37 L67.17,54.89 C67.2277318,56.0035281 67.0540807,57.1169381 66.66,58.16 C66.3342303,58.8048242 65.8126307,59.3299244 65.17,59.66 C64.3972904,60.0546845 63.537242,60.2473353 62.67,60.22 C61.6598207,60.2694908 60.6605405,59.9924973 59.82,59.43 C59.0831848,58.8669192 58.689823,57.9629435 58.78,57.04 Z M60.17,51.16 C60.0844875,52.1646576 60.3572546,53.1671652 60.94,53.99 C61.4225671,54.5540223 62.1277115,54.8787278 62.87,54.8787278 C63.6122885,54.8787278 64.3174329,54.5540223 64.8,53.99 C65.3942529,53.1726397 65.6682073,52.1657682 65.57,51.16 C65.6468717,50.1827139 65.3621863,49.2112251 64.77,48.43 C64.2986788,47.8475248 63.5892801,47.5093659 62.84,47.51 C62.1041072,47.5088687 61.4080243,47.8440197 60.95,48.42 C60.3625442,49.2066565 60.0849223,50.1818924 60.17,51.16 Z" id="Shape" fill="#888888"></path>
            <path d="M73.65,56.22 L78.87,42.62 L80.81,42.62 L86.38,56.22 L84.33,56.22 L82.74,52.1 L77.05,52.1 L75.56,56.22 L73.65,56.22 Z M77.57,50.64 L82.17,50.64 L80.77,46.87 C80.3366667,45.7233333 80.0033333,44.7833333 79.77,44.05 C79.5945873,44.9343166 79.3505148,45.8036159 79.04,46.65 L77.57,50.64 Z" id="Shape" fill="#888888"></path>
            <path d="M87.6,56.22 L87.6,46.37 L89.09,46.37 L89.09,47.75 C89.7423061,46.7297277 90.8793196,46.1233205 92.09,46.15 C92.7176758,46.1232849 93.3395803,46.2796296 93.88,46.6 C94.3479488,46.8974169 94.7006464,47.3453429 94.88,47.87 C95.5104215,46.8101729 96.6469362,46.1547827 97.88,46.14 C98.7098475,46.0864917 99.5246766,46.3798302 100.13,46.95 C100.710138,47.6479544 100.993738,48.5454208 100.92,49.45 L100.92,56.21 L99.26,56.21 L99.26,50.02 C99.2837507,49.5345404 99.2297357,49.0484055 99.1,48.58 C98.9892615,48.2834351 98.7812825,48.0331552 98.51,47.87 C98.2091761,47.6866162 97.8622426,47.5929442 97.51,47.6 C96.8624853,47.5794914 96.2356653,47.8294948 95.78,48.29 C95.263558,48.9046667 95.0150278,49.7006836 95.09,50.5 L95.09,56.22 L93.42,56.22 L93.42,49.82 C93.4605287,49.2342241 93.3171962,48.6504063 93.01,48.15 C92.6838298,47.7526783 92.181893,47.5429137 91.67,47.59 C91.2103957,47.5879108 90.7596227,47.7162078 90.37,47.96 C89.9665964,48.211691 89.6600291,48.5922573 89.5,49.04 C89.2996565,49.7277213 89.2218044,50.4453146 89.27,51.16 L89.27,56.27 L87.6,56.22 Z" id="Shape" fill="#888888"></path>
            <path d="M110.17,53.05 L111.9,53.26 C111.678776,54.1923517 111.146107,55.0213393 110.39,55.61 C108.453932,56.8856288 105.902291,56.7010245 104.17,55.16 C103.2747,54.130862 102.81872,52.7916465 102.9,51.43 C102.795606,50.0107213 103.251532,48.6070446 104.17,47.52 C105.023305,46.6132951 106.225628,46.1177926 107.47,46.16 C108.690024,46.1172396 109.868536,46.6061577 110.7,47.5 C111.589897,48.5548253 112.037755,49.9127302 111.95,51.29 C111.95,51.39 111.95,51.54 111.95,51.74 L104.6,51.74 C104.595563,52.653927 104.922398,53.5385129 105.52,54.23 C106.05273,54.797138 106.802152,55.1100034 107.58,55.09 C108.141837,55.106697 108.693554,54.9380195 109.15,54.61 C109.636807,54.2023269 109.991773,53.6594371 110.17,53.05 Z M104.69,50.35 L110.17,50.35 C110.151131,49.6808771 109.931642,49.0328609 109.54,48.49 C109.04688,47.8481778 108.279286,47.4773591 107.47,47.49 C106.748668,47.4732189 106.051681,47.7512915 105.54,48.26 C104.995506,48.8195229 104.690585,49.5692703 104.69,50.35 Z" id="Shape" fill="#888888"></path>
            <path d="M113.98,56.22 L113.98,46.37 L115.48,46.37 L115.48,47.86 C115.729986,47.3291273 116.091542,46.8584232 116.54,46.48 C116.854303,46.2627049 117.227904,46.1474823 117.61,46.15 C118.222695,46.1647437 118.818824,46.3519006 119.33,46.69 L118.75,48.24 C118.383114,48.0124555 117.961644,47.8880871 117.53,47.88 C117.16886,47.8732206 116.816174,47.989607 116.53,48.21 C116.232346,48.4401786 116.01529,48.7587607 115.91,49.12 C115.718137,49.7519992 115.623719,50.4095494 115.63,51.07 L115.63,56.23 L113.98,56.22 Z" id="Shape" fill="#888888"></path>
            <path d="M120.33,44.54 L120.33,42.62 L122,42.62 L122,44.54 L120.33,44.54 Z M120.33,56.22 L120.33,46.37 L122,46.37 L122,56.22 L120.33,56.22 Z" id="Shape" fill="#888888"></path>
            <path d="M130.97,52.61 L132.61,52.82 C132.486451,53.8442643 131.996241,54.789162 131.23,55.48 C130.4802,56.1416012 129.509789,56.4983701 128.51,56.48 C127.286683,56.5310963 126.10124,56.0496239 125.26,55.16 C124.378209,54.1016625 123.937743,52.7444535 124.03,51.37 C124.009532,50.4131627 124.19009,49.4626795 124.56,48.58 C124.873206,47.8048222 125.441035,47.159401 126.17,46.75 C126.888553,46.3508647 127.698055,46.1441835 128.52,46.15 C129.46391,46.1081142 130.39321,46.3943243 131.15,46.96 C131.855995,47.5426061 132.322405,48.3650541 132.46,49.27 L130.84,49.52 C130.734313,48.9479672 130.446706,48.4253641 130.02,48.03 C129.623309,47.6960401 129.118416,47.5182607 128.6,47.53 C127.832946,47.5190055 127.100483,47.8486139 126.6,48.43 C126.005678,49.2594074 125.725664,50.2731311 125.81,51.29 C125.724161,52.3088719 125.992608,53.3261474 126.57,54.17 C127.060584,54.7644975 127.799698,55.0970985 128.57,55.07 C129.17361,55.0891207 129.76124,54.8741343 130.21,54.47 C130.6696,53.9557894 130.937995,53.298927 130.97,52.61 Z" id="Shape" fill="#888888"></path>
            <path d="M140.47,55.01 C139.946696,55.4921739 139.344654,55.8811332 138.69,56.16 C138.101178,56.3774815 137.477674,56.4859171 136.85,56.48 C135.946751,56.5422695 135.053455,56.259988 134.35,55.69 C133.78311,55.1814599 133.465545,54.4514253 133.48,53.69 C133.475513,53.2290436 133.58912,52.7746146 133.81,52.37 C134.010284,51.9711593 134.305633,51.6277298 134.67,51.37 C135.037318,51.1224323 135.442675,50.9366439 135.87,50.82 C136.357633,50.7058649 136.851933,50.6223683 137.35,50.57 C138.366848,50.4772558 139.371859,50.2829538 140.35,49.99 C140.35,49.7633333 140.35,49.6166667 140.35,49.55 C140.40734,49.0247834 140.236142,48.5002608 139.88,48.11 C139.337875,47.6936669 138.661774,47.4908368 137.98,47.54 C137.371812,47.4966695 136.764858,47.6396872 136.24,47.95 C135.804534,48.3274477 135.51159,48.8427461 135.41,49.41 L133.77,49.16 C133.878629,48.5475721 134.128581,47.9689152 134.5,47.47 C134.886443,47.0053171 135.395863,46.6587729 135.97,46.47 C136.680504,46.2429036 137.424407,46.1380809 138.17,46.16 C138.865655,46.1387191 139.559614,46.240274 140.22,46.46 C140.665158,46.6051867 141.064907,46.8636452 141.38,47.21 C141.642986,47.5423491 141.821421,47.9335353 141.9,48.35 C141.968799,48.8602759 141.995556,49.375342 141.98,49.89 L141.98,52.12 C141.954938,53.1046661 141.991677,54.0899347 142.09,55.07 C142.161924,55.4843436 142.303958,55.8833933 142.51,56.25 L140.77,56.25 C140.59615,55.858103 140.494518,55.4380257 140.47,55.01 Z M140.33,51.28 C139.447213,51.5941414 138.531174,51.805535 137.6,51.91 C137.102071,51.9623321 136.612032,52.0730942 136.14,52.24 C135.871476,52.3508322 135.641811,52.5387403 135.48,52.78 C135.08575,53.3959338 135.200471,54.20748 135.75,54.69 C136.171303,55.0167154 136.698138,55.1769015 137.23,55.14 C137.830158,55.15247 138.423133,55.007674 138.95,54.72 C139.427851,54.4610599 139.812543,54.0588822 140.05,53.57 C140.25803,53.0389485 140.350089,52.4695497 140.32,51.9 L140.33,51.28 Z" id="Shape" fill="#888888"></path>
            <polygon id="Shape" fill="#888888" points="150.17 56.22 150.17 42.62 151.97 42.62 151.97 48.16 159.04 48.16 159.04 42.62 160.84 42.62 160.84 56.22 159.04 56.22 159.04 49.81 151.97 49.81 151.97 56.22"></polygon>
            <path d="M170.36,53.05 L172.09,53.26 C171.868776,54.1923517 171.336107,55.0213393 170.58,55.61 C168.626286,56.8876075 166.055749,56.6819646 164.33,55.11 C163.4347,54.080862 162.97872,52.7416465 163.06,51.38 C162.971612,49.9762413 163.430367,48.5928084 164.34,47.52 C165.197961,46.6079428 166.408746,46.1119589 167.66,46.16 C168.880024,46.1172396 170.058536,46.6061577 170.89,47.5 C171.789156,48.5472217 172.247892,49.9019262 172.17,51.28 C172.17,51.38 172.17,51.53 172.17,51.73 L164.82,51.73 C164.815563,52.643927 165.142398,53.5285129 165.74,54.22 C166.27273,54.787138 167.022152,55.1000034 167.8,55.08 C168.361837,55.096697 168.913554,54.9280195 169.37,54.6 C169.844565,54.191341 170.188785,53.6524112 170.36,53.05 Z M164.88,50.35 L170.38,50.35 C170.361747,49.6807669 170.142198,49.0325744 169.75,48.49 C169.25688,47.8481778 168.489286,47.4773591 167.68,47.49 C166.958668,47.4732189 166.261681,47.7512915 165.75,48.26 C165.194517,48.8146983 164.878588,49.5650301 164.87,50.35 L164.88,50.35 Z" id="Shape" fill="#888888"></path>
            <path d="M180.61,55.01 C180.083687,55.4931339 179.478192,55.8821385 178.82,56.16 C178.231178,56.3774815 177.607674,56.4859171 176.98,56.48 C176.076751,56.5422695 175.183455,56.259988 174.48,55.69 C173.91311,55.1814599 173.595545,54.4514253 173.61,53.69 C173.605513,53.2290436 173.71912,52.7746146 173.94,52.37 C174.140284,51.9711593 174.435633,51.6277298 174.8,51.37 C175.167318,51.1224323 175.572675,50.9366439 176,50.82 C176.487633,50.7058649 176.981933,50.6223683 177.48,50.57 C178.496848,50.4772558 179.501859,50.2829538 180.48,49.99 C180.48,49.7633333 180.48,49.6166667 180.48,49.55 C180.53734,49.0247834 180.366142,48.5002608 180.01,48.11 C179.467875,47.6936669 178.791774,47.4908368 178.11,47.54 C177.501812,47.4966695 176.894858,47.6396872 176.37,47.95 C175.934534,48.3274477 175.64159,48.8427461 175.54,49.41 L173.9,49.16 C174.008629,48.5475721 174.258581,47.9689152 174.63,47.47 C175.016443,47.0053171 175.525863,46.6587729 176.1,46.47 C176.820841,46.2248059 177.578721,46.1063871 178.34,46.12 C179.035655,46.0987191 179.729614,46.200274 180.39,46.42 C180.835158,46.5651867 181.234907,46.8236452 181.55,47.17 C181.812986,47.5023491 181.991421,47.8935353 182.07,48.31 C182.138799,48.8202759 182.165556,49.335342 182.15,49.85 L182.15,52.08 C182.124938,53.0646661 182.161677,54.0499347 182.26,55.03 C182.331924,55.4443436 182.473958,55.8433933 182.68,56.21 L180.94,56.21 C180.760392,55.8324797 180.648686,55.4262738 180.61,55.01 Z M180.47,51.28 C179.587213,51.5941414 178.671174,51.805535 177.74,51.91 C177.242071,51.9623321 176.752032,52.0730942 176.28,52.24 C176.011476,52.3508322 175.781811,52.5387403 175.62,52.78 C175.22575,53.3959338 175.340471,54.20748 175.89,54.69 C176.311303,55.0167154 176.838138,55.1769015 177.37,55.14 C177.970158,55.15247 178.563133,55.007674 179.09,54.72 C179.561952,54.4551566 179.939499,54.0496433 180.17,53.56 C180.37803,53.0289485 180.470089,52.4595497 180.44,51.89 L180.47,51.28 Z" id="Shape" fill="#888888"></path>
            <polygon id="Shape" fill="#888888" points="184.71 56.22 184.71 42.62 186.38 42.62 186.38 56.22"></polygon>
            <path d="M192.61,54.73 L192.85,56.21 C192.436223,56.302891 192.01402,56.3531533 191.59,56.36 C191.098709,56.384216 190.609513,56.2808648 190.17,56.06 C189.855772,55.8921905 189.60607,55.6249046 189.46,55.3 C189.281348,54.649322 189.213733,53.9731699 189.26,53.3 L189.26,47.67 L188.04,47.67 L188.04,46.37 L189.26,46.37 L189.26,43.93 L190.92,42.93 L190.92,46.37 L192.6,46.37 L192.6,47.67 L190.92,47.67 L190.92,53.43 C190.900268,53.7395122 190.930659,54.0501797 191.01,54.35 C191.06875,54.4882697 191.170426,54.6039698 191.3,54.68 C191.476091,54.7695727 191.672742,54.8109729 191.87,54.8 C192.117995,54.7939157 192.365263,54.7705255 192.61,54.73 Z" id="Shape" fill="#888888"></path>
            <path d="M194.24,56.22 L194.24,42.62 L195.91,42.62 L195.91,47.5 C196.646827,46.6095007 197.754849,46.110891 198.91,46.15 C199.569092,46.134566 200.22178,46.2822797 200.81,46.58 C201.319628,46.8347372 201.728356,47.2540347 201.97,47.77 C202.236865,48.4749024 202.355996,49.2271332 202.32,49.98 L202.32,56.22 L200.65,56.22 L200.65,49.98 C200.707853,49.3267512 200.514769,48.6759871 200.11,48.16 C199.701932,47.7583074 199.141261,47.5507865 198.57,47.59 C198.077472,47.5870897 197.593464,47.7184635 197.17,47.97 C196.760901,48.1951284 196.4349,48.5456671 196.24,48.97 C196.029838,49.5528483 195.934748,50.170934 195.96,50.79 L195.96,56.18 L194.24,56.22 Z" id="Shape" fill="#888888"></path>
            <path d="M204.74,60.02 L204.55,58.45 C204.875006,58.5450391 205.211413,58.5955002 205.55,58.6 C205.857933,58.6126197 206.164065,58.5472656 206.44,58.41 C206.664248,58.2858163 206.853447,58.1069371 206.99,57.89 C207.193161,57.4910964 207.363718,57.0764104 207.5,56.65 L207.65,56.24 L203.91,46.37 L205.71,46.37 L207.76,52.08 C208.026667,52.8 208.263333,53.56 208.47,54.36 C208.660839,53.6018281 208.891153,52.8541427 209.16,52.12 L211.27,46.38 L212.94,46.38 L209.19,56.38 C208.922903,57.1452384 208.608977,57.8933184 208.25,58.62 C208.018844,59.0978962 207.675806,59.512972 207.25,59.83 C206.841935,60.0915495 206.364489,60.2239799 205.88,60.21 C205.491862,60.2131885 205.106123,60.1488986 204.74,60.02 Z" id="Shape" fill="#888888"></path>
            <polygon id="Shape" fill="#026666" points="0 35.89 3.17 1 12.42 1 20.59 27.31 30.42 0.97 40.25 0.97 40.25 35.81 33.67 35.89 34.17 7.25 23.09 35.89 16.35 35.89 8.09 6.95 6.25 35.89"></polygon>
            <path d="M66.75,30.22 L66.36,34.64 C64.03,36.64 60.96,36.89 58,36.89 C52.83,36.89 48.33,35.43 46.24,32.36 C44.2922875,29.5944175 43.295612,26.270996 43.4,22.89 C43.6229326,18.9796746 45.307696,15.2960393 48.12,12.57 C50.58,10.04 53.6,9.16 57.17,9.16 C61.17,9.16 64.28,10.16 66.46,12.77 C68.64,15.38 69.33,18.77 69.31,22.86 L50.09,22.86 C49.9,26.66 50.68,28.52 51.72,29.69 C52.9474282,31.1917119 54.7805225,32.067931 56.72,32.08 C60.62,32.16 65.17,31.86 66.75,30.22 Z M63.17,19.72 C63.3262256,18.2127761 62.9241653,16.7006023 62.04,15.47 C61.04,14.4 59.46,13.8 56.87,13.8 C55.1463153,13.7617003 53.4740286,14.3883602 52.2,15.55 C51.0356365,16.6658894 50.3476958,18.1886749 50.28,19.8 L63.17,19.72 Z" id="Shape" fill="#086666"></path>
            <path d="M97.35,35.89 L91.17,35.89 L91.34,31.47 C89.8072988,33.1996771 87.9702102,34.6334196 85.92,35.7 C84.5894117,36.4216038 83.103523,36.8093762 81.59,36.83 C78.4909532,36.8656049 75.5451302,35.4847504 73.59,33.08 C71.4774087,30.4856194 70.3761393,27.2137835 70.49,23.87 C70.5695213,19.8704004 72.150951,16.0471245 74.92,13.16 C77.19,10.78 80.42,9.16 85.5,9.08 C87.6720891,9.26681153 89.8216527,9.65855443 91.92,10.25 L92.17,1 L98.76,1.06 L97.35,35.89 Z M77.17,23.22 C76.9713279,25.4264705 77.3757247,27.6454685 78.34,29.64 C79.09,30.97 81.34,32.06 83.42,32.06 C85.06,32.06 87.53,31.46 88.75,30.06 C89.97,28.66 91.83,26.98 91.33,14.31 C89.0891579,13.8087356 86.7787298,13.6971043 84.5,13.98 C82.6810317,14.2568318 81.0080191,15.1373647 79.75,16.48 C78.2187844,18.4087112 77.3180382,20.7618233 77.17,23.22 Z" id="Shape" fill="#086666"></path>
            <path d="M103.59,4.57 L103.33,0 L110.46,0 L110.17,4.57 L103.59,4.57 Z M102.38,36.06 L103.29,10.06 L110.42,10.06 L109.51,36.06 L102.38,36.06 Z" id="Shape" fill="#086666"></path>
            <path d="M133.75,10.56 L133.67,15.23 C133.51,13.83 127.84,13.06 125.75,13.48 C123.950152,13.884721 122.370675,14.956764 121.33,16.48 C119.75,18.48 119.33,22.22 119.33,22.26 C119.069894,24.5646677 119.483231,26.8953294 120.52,28.97 C121.386803,30.6125792 122.983224,31.7449238 124.82,32.02 C126.1,32.23 130.82,32.83 132.82,30.89 L132.57,35.31 C130.196581,36.2764317 127.63899,36.7066806 125.08,36.57 C121.14,36.57 118.08,35.57 115.91,33.1 C113.443496,30.1993765 112.237518,26.4338458 112.56,22.64 C112.79,18.19 114.08,14.95 116.56,12.47 C121.314414,8.29272996 128.170328,7.52608139 133.73,10.55 L133.75,10.56 Z" id="Shape" fill="#086666"></path>
            <path d="M161.17,16.26 C161.27,13.04 158.92,8.51 150.23,9.01 C146.73,9.21 141.63,9.89 139.38,11.64 L139.38,14.72 C141.96,13.22 143.63,12.47 149.3,12.51 C156.36,12.56 154.05,17.51 154.05,17.51 C152.74,18.57 149.13,19.8 147.49,20.14 C145.11654,20.6368304 142.793522,21.3498029 140.55,22.27 C136.55,24.1 135.66,26.98 135.68,29.27 C135.716355,31.3281139 136.573141,33.2864813 138.06,34.71 C140.31,37.23 143.91,36.77 146.69,36.77 C150.5,36.77 150.63,34.33 150.88,32.46 C149.479925,32.7825809 148.060217,33.0130747 146.63,33.15 C145.437573,33.3436275 144.222223,32.9795207 143.33268,32.1621551 C142.443136,31.3447895 141.977729,30.1645165 142.07,28.96 C142.187045,27.8606455 142.698649,26.8409918 143.51,26.09 C144.653244,25.2188961 145.980307,24.6203496 147.39,24.34 C149.717653,23.6447373 151.985086,22.7618432 154.17,21.7 C154.17,21.7 153.31,35.52 153.4,35.89 L160.46,35.89 C160.36,33.39 160.36,28.2 160.46,24.7 C160.56,21.2 161.17,16.26 161.17,16.26 Z" id="Shape" fill="#086666"></path>
            <path d="M165.72,4.57 L165.46,0 L172.59,0 L172.24,4.57 L165.72,4.57 Z M164.51,36.06 L165.42,10.06 L172.55,10.06 L171.64,36.06 L164.51,36.06 Z" id="Shape" fill="#086666"></path>
            <path d="M201.35,35.72 L195.17,35.72 L195.34,31.3 C193.807299,33.0296771 191.97021,34.4634196 189.92,35.53 C188.589412,36.2516038 187.103523,36.6393762 185.59,36.66 C182.490953,36.6956049 179.54513,35.3147504 177.59,32.91 C175.259755,30.4409269 174.127014,27.0755893 174.49,23.7 C174.659607,19.7108521 176.227913,15.9086837 178.92,12.96 C181.692647,10.1369481 185.549802,8.64950087 189.5,8.88 C191.679316,9.00997723 193.83494,9.40282471 195.92,10.05 L196.17,0.83 L202.76,0.89 L201.35,35.72 Z M181.17,23.06 C180.971328,25.2664705 181.375725,27.4854685 182.34,29.48 C183.09,30.81 185.34,31.9 187.42,31.9 C189.06,31.9 191.53,31.3 192.75,29.9 C193.97,28.5 195.83,26.82 195.33,14.15 C193.089158,13.6487356 190.77873,13.5371043 188.5,13.82 C186.681032,14.0968318 185.008019,14.9773647 183.75,16.32 C182.218784,18.2487112 181.318038,20.6018233 181.17,23.06 Z" id="Shape" fill="#086666"></path>
            <polygon id="Shape" fill="#888888" points="206.38 35.89 206.44 28.89 213.39 28.89 213.33 35.89"></polygon>
            <path d="M243.35,35.89 L243.17,40.89 C243.17,40.89 243.34,49.22 231,49.22 C227.161428,49.0886392 223.354737,48.4737898 219.67,47.39 L219,42.56 C222.263264,43.4760702 225.61615,44.036002 229,44.23 C235.83,44.56 237.17,39.4 237.17,39.4 L237.34,31.48 C235.807299,33.2096771 233.97021,34.6434196 231.92,35.71 C230.589412,36.4316038 229.103523,36.8193762 227.59,36.84 C224.49,36.84 220.92,36.06 218.84,33.56 C216.76,31.06 216.26,28.35 216.49,23.88 C216.664242,19.8978175 218.232238,16.1034797 220.92,13.16 C223.19,10.78 226.59,9.06 231.5,9.08 C235.5269,9.33424617 239.534421,9.83518624 243.5,10.58 L243.35,35.89 Z M223.17,23.22 C222.971328,25.4264705 223.375725,27.6454685 224.34,29.64 C225.09,30.97 227.34,32.06 229.42,32.06 C231.06,32.06 233.53,31.46 234.75,30.06 C235.97,28.66 237.83,26.98 237.33,14.31 C235.089158,13.8087356 232.77873,13.6971043 230.5,13.98 C228.681032,14.2568318 227.008019,15.1373647 225.75,16.48 C224.218784,18.4087112 223.318038,20.7618233 223.17,23.22 Z" id="Shape" fill="#888888"></path>
            <path d="M247.46,22.45 C247.692492,20.0692198 248.483974,17.7770038 249.77,15.76 C251.083819,13.6525421 252.951943,11.9470145 255.17,10.83 C257.389011,9.69958384 259.849875,9.12641207 262.34,9.16 C266.34,9.16 269.77,10.45 272.09,13.03 C274.600502,15.6279374 275.875071,19.1785233 275.59,22.78 C275.24,26.78 274.26,30.29 271.47,32.91 C268.734713,35.4783405 265.101205,36.8714247 261.35,36.79 C258.878352,36.6977131 256.461752,36.0336616 254.29,34.85 C252.199855,33.7823755 250.463338,32.1326842 249.29,30.1 C247.904669,27.8001534 247.265398,25.1277913 247.46,22.45 Z M253.77,23.01 C253.675204,25.3916234 254.340634,27.7416417 255.67,29.72 C256.958125,31.4295992 259.0381,32.3523519 261.17,32.16 C263.65552,32.2866043 266.039356,31.1603824 267.52,29.16 C268.953972,27.1199291 269.639279,24.6471719 269.46,22.16 C269.4,19.91 268.94,17.57 267.84,16.16 C266.560277,14.3857891 264.464105,13.3867141 262.28,13.51 C260.279432,13.4673605 258.336532,14.181662 256.84,15.51 C255.020615,17.6049074 253.941718,20.2406477 253.77,23.01 Z" id="Shape" fill="#888888"></path>
            <path d="M286.02,35.85 L275.82,10.01 L283.31,10.01 L289.65,29.6 C290.1,28.48 297.24,10.01 297.24,10.01 L304.17,10.01 L292.25,35.89 L286.02,35.85 Z" id="Shape" fill="#888888"></path>
        </g>
    </g>
</svg>